<svg viewBox="0 0 42 38" fill="none" xmlns="http://www.w3.org/2000/svg">
    <path
        d="M5.75 28.73a5.23 5.23 0 0 0 5.57 0c1.54-1.08 1.54-2.82 0-3.9a5.23 5.23 0 0 0-5.57 0c-1.54 1.08-1.54 2.82 0 3.9Zm15.98-14.59a7.84 7.84 0 0 0 8.37 0c2.3-1.61 2.3-4.23 0-5.84a7.84 7.84 0 0 0-8.37 0c-2.3 1.61-2.3 4.23 0 5.84Zm-8.48 7.29a6.54 6.54 0 0 0 6.97 0c1.92-1.34 1.92-3.52 0-4.86a6.54 6.54 0 0 0-6.97 0c-1.93 1.34-1.93 3.52 0 4.86ZM.87 20.46c1.15.8 3.02.8 4.18 0 1.15-.8 1.15-2.11 0-2.92a3.92 3.92 0 0 0-4.18 0c-1.16.8-1.16 2.11 0 2.92ZM13.25 5.87a6.54 6.54 0 0 0 6.97 0c1.92-1.34 1.92-3.52 0-4.86a6.54 6.54 0 0 0-6.97 0c-1.93 1.34-1.93 3.52 0 4.86Zm-7.5 7.29a5.23 5.23 0 0 0 5.57 0c1.54-1.07 1.54-2.81 0-3.89a5.23 5.23 0 0 0-5.57 0c-1.54 1.08-1.54 2.82 0 3.9ZM13.25 37a6.54 6.54 0 0 0 6.97 0c1.92-1.35 1.92-3.53 0-4.87a6.54 6.54 0 0 0-6.97 0c-1.93 1.34-1.93 3.52 0 4.86ZM31.9 21.92a7.84 7.84 0 0 0 8.37 0c2.3-1.61 2.3-4.23 0-5.84a7.84 7.84 0 0 0-8.37 0c-2.3 1.61-2.3 4.23 0 5.84ZM21.73 29.7a7.84 7.84 0 0 0 8.37 0c2.3-1.61 2.3-4.23 0-5.84a7.84 7.84 0 0 0-8.37 0c-2.3 1.61-2.3 4.23 0 5.84Z"
        class="ccustom" fill="#25CAAC" />
</svg>